<svg width="79" height="19" viewBox="0 0 79 19" fill="none" xmlns="http://www.w3.org/2000/svg">
<g clip-path="url(#clip0_1_107)">
<path fill-rule="evenodd" clip-rule="evenodd" d="M7.1033 13.053C6.51869 13.053 5.95803 12.8208 5.54464 12.4074C5.13126 11.994 4.89903 11.4333 4.89903 10.8487V0.709068H0.490479V10.8487C0.490479 14.5008 3.45126 17.4616 7.1033 17.4616H11.9527V13.053H7.1033ZM20.3289 5.11762C19.8079 5.11762 19.292 5.22025 18.8106 5.41964C18.3292 5.61904 17.8918 5.91129 17.5234 6.27973C17.1549 6.64816 16.8627 7.08556 16.6633 7.56694C16.4639 8.04832 16.3613 8.56427 16.3613 9.08531C16.3613 9.60636 16.4639 10.1223 16.6633 10.6037C16.8627 11.0851 17.1549 11.5225 17.5234 11.8909C17.8918 12.2593 18.3292 12.5516 18.8106 12.751C19.292 12.9504 19.8079 13.053 20.3289 13.053C21.3812 13.053 22.3904 12.635 23.1345 11.8909C23.8786 11.1468 24.2966 10.1376 24.2966 9.08531C24.2966 8.03301 23.8786 7.02382 23.1345 6.27973C22.3904 5.53564 21.3812 5.11762 20.3289 5.11762ZM11.9527 9.08531C11.9527 4.45942 15.7031 0.709068 20.3289 0.709068C24.9548 0.709068 28.7052 4.45942 28.7052 9.08531C28.7052 13.7112 24.9548 17.4616 20.3289 17.4616C15.7031 17.4616 11.9527 13.7112 11.9527 9.08531ZM67.9413 5.11762C66.889 5.11762 65.8798 5.53564 65.1357 6.27973C64.3916 7.02382 63.9736 8.03301 63.9736 9.08531C63.9736 10.1376 64.3916 11.1468 65.1357 11.8909C65.8798 12.635 66.889 13.053 67.9413 13.053C68.9936 13.053 70.0028 12.635 70.7469 11.8909C71.491 11.1468 71.909 10.1376 71.909 9.08531C71.909 8.03301 71.491 7.02382 70.7469 6.27973C70.0028 5.53564 68.9936 5.11762 67.9413 5.11762ZM59.565 9.08531C59.565 4.45942 63.3154 0.709068 67.9413 0.709068C72.5672 0.709068 76.3175 4.45942 76.3175 9.08531C76.3175 13.7112 72.5672 17.4616 67.9413 17.4616C63.3154 17.4616 59.565 13.7112 59.565 9.08531ZM37.9631 0.709068C33.3373 0.709068 29.5869 4.45942 29.5869 9.08531C29.5869 13.7112 33.3373 17.4616 37.9631 17.4616H50.3071C51.1751 17.4616 52.0123 17.3293 52.7997 17.0842L55.1565 18.3433L57.6993 13.5803C58.3453 12.3678 58.6832 11.0151 58.6833 9.64123V9.08531C58.6833 4.45942 54.933 0.709068 50.3071 0.709068H37.9631ZM54.2748 9.08531C54.2748 8.03301 53.8568 7.02382 53.1127 6.27973C52.3686 5.53564 51.3594 5.11762 50.3071 5.11762H37.9631C37.4421 5.11762 36.9262 5.22025 36.4448 5.41964C35.9634 5.61904 35.526 5.91129 35.1576 6.27973C34.7891 6.64816 34.4969 7.08556 34.2975 7.56694C34.0981 8.04832 33.9955 8.56427 33.9955 9.08531C33.9955 9.60636 34.0981 10.1223 34.2975 10.6037C34.4969 11.0851 34.7891 11.5225 35.1576 11.8909C35.526 12.2593 35.9634 12.5516 36.4448 12.751C36.9262 12.9504 37.4421 13.053 37.9631 13.053H50.3071C51.3541 13.053 52.3586 12.6393 53.1018 11.9018C53.845 11.1644 54.2666 10.1631 54.2748 9.11617V9.08531Z" fill="white"/>
<path d="M78.0799 1.81121C78.0799 2.10351 77.9638 2.38384 77.7571 2.59053C77.5504 2.79723 77.2701 2.91334 76.9778 2.91334C76.6855 2.91334 76.4051 2.79723 76.1984 2.59053C75.9917 2.38384 75.8756 2.10351 75.8756 1.81121C75.8756 1.5189 75.9917 1.23857 76.1984 1.03188C76.4051 0.825186 76.6855 0.709068 76.9778 0.709068C77.2701 0.709068 77.5504 0.825186 77.7571 1.03188C77.9638 1.23857 78.0799 1.5189 78.0799 1.81121Z" fill="white"/>
</g>
<defs>
<clipPath id="clip0_1_107">
<rect width="77.5905" height="17.6342" fill="white" transform="translate(0.490356 0.709148)"/>
</clipPath>
</defs>
</svg>
